<mxfile host="65bd71144e">
    <diagram id="s-Le1X7FZcaIrYFla7V8" name="Page-1">
        <mxGraphModel dx="1174" dy="1873" grid="1" gridSize="10" guides="1" tooltips="1" connect="1" arrows="1" fold="1" page="1" pageScale="1" pageWidth="850" pageHeight="1100" math="0" shadow="0">
            <root>
                <mxCell id="0"/>
                <mxCell id="1" parent="0"/>
                <mxCell id="2" value="" style="rounded=1;whiteSpace=wrap;html=1;" vertex="1" parent="1">
                    <mxGeometry x="120" y="90" width="560" height="340" as="geometry"/>
                </mxCell>
                <mxCell id="3" value="1000" style="rounded=1;whiteSpace=wrap;html=1;" vertex="1" parent="1">
                    <mxGeometry x="140" y="230" width="50" height="20" as="geometry"/>
                </mxCell>
                <mxCell id="4" value="500" style="rounded=1;whiteSpace=wrap;html=1;" vertex="1" parent="1">
                    <mxGeometry x="140" y="260" width="50" height="20" as="geometry"/>
                </mxCell>
                <mxCell id="5" value="100" style="rounded=1;whiteSpace=wrap;html=1;" vertex="1" parent="1">
                    <mxGeometry x="140" y="290" width="50" height="20" as="geometry"/>
                </mxCell>
                <mxCell id="6" value="10" style="rounded=1;whiteSpace=wrap;html=1;" vertex="1" parent="1">
                    <mxGeometry x="140" y="350" width="50" height="20" as="geometry"/>
                </mxCell>
                <mxCell id="7" value="50" style="rounded=1;whiteSpace=wrap;html=1;" vertex="1" parent="1">
                    <mxGeometry x="140" y="320" width="50" height="20" as="geometry"/>
                </mxCell>
                <mxCell id="8" value="5" style="rounded=1;whiteSpace=wrap;html=1;" vertex="1" parent="1">
                    <mxGeometry x="140" y="380" width="50" height="20" as="geometry"/>
                </mxCell>
                <mxCell id="10" value="CAPITAL" style="rounded=1;whiteSpace=wrap;html=1;" vertex="1" parent="1">
                    <mxGeometry x="140" y="180" width="80" height="40" as="geometry"/>
                </mxCell>
                <mxCell id="11" value="POSSIBLE WIN" style="rounded=1;whiteSpace=wrap;html=1;" vertex="1" parent="1">
                    <mxGeometry x="330" y="110" width="140" height="40" as="geometry"/>
                </mxCell>
                <mxCell id="12" value="C.CAPITAL" style="rounded=1;whiteSpace=wrap;html=1;" vertex="1" parent="1">
                    <mxGeometry x="570" y="310" width="80" height="40" as="geometry"/>
                </mxCell>
                <mxCell id="14" value="DEAL" style="shape=process;whiteSpace=wrap;html=1;backgroundOutline=1;" vertex="1" parent="1">
                    <mxGeometry x="350" y="275" width="90" height="50" as="geometry"/>
                </mxCell>
                <mxCell id="15" value="" style="rounded=1;whiteSpace=wrap;html=1;" vertex="1" parent="1">
                    <mxGeometry x="140" y="-370" width="560" height="340" as="geometry"/>
                </mxCell>
                <mxCell id="16" value="&lt;font color=&quot;#02013c&quot; size=&quot;1&quot; style=&quot;&quot;&gt;&lt;b style=&quot;font-size: 26px;&quot;&gt;BLACK JACK ON THE WEB&lt;/b&gt;&lt;/font&gt;" style="rounded=0;whiteSpace=wrap;html=1;fillColor=#1ba1e2;fontColor=#ffffff;strokeColor=#006EAF;" vertex="1" parent="1">
                    <mxGeometry x="190" y="-280" width="470" height="60" as="geometry"/>
                </mxCell>
                <mxCell id="17" value="" style="rounded=0;whiteSpace=wrap;html=1;" vertex="1" parent="1">
                    <mxGeometry x="390" y="-190" width="120" height="30" as="geometry"/>
                </mxCell>
                <mxCell id="18" value="&lt;b style=&quot;&quot;&gt;&lt;font style=&quot;background-color: rgb(0, 255, 255);&quot; color=&quot;#051961&quot;&gt;NAME&lt;/font&gt;&lt;/b&gt;" style="rounded=1;whiteSpace=wrap;html=1;fillColor=#1ba1e2;fontColor=#ffffff;strokeColor=#006EAF;" vertex="1" parent="1">
                    <mxGeometry x="330" y="-190" width="50" height="30" as="geometry"/>
                </mxCell>
                <mxCell id="19" value="&lt;b&gt;PLAY&lt;/b&gt;" style="rounded=1;whiteSpace=wrap;html=1;labelBackgroundColor=#00FFFF;fontSize=26;fontColor=#051961;" vertex="1" parent="1">
                    <mxGeometry x="355" y="-120" width="90" height="30" as="geometry"/>
                </mxCell>
                <mxCell id="20" value="" style="rounded=1;whiteSpace=wrap;html=1;" vertex="1" parent="1">
                    <mxGeometry x="120" y="500" width="560" height="340" as="geometry"/>
                </mxCell>
                <mxCell id="27" value="CAPITAL" style="rounded=1;whiteSpace=wrap;html=1;" vertex="1" parent="1">
                    <mxGeometry x="140" y="780" width="80" height="40" as="geometry"/>
                </mxCell>
                <mxCell id="28" value="POSSIBLE WIN" style="rounded=1;whiteSpace=wrap;html=1;" vertex="1" parent="1">
                    <mxGeometry x="330" y="520" width="140" height="40" as="geometry"/>
                </mxCell>
                <mxCell id="29" value="C.CAPITAL" style="rounded=1;whiteSpace=wrap;html=1;" vertex="1" parent="1">
                    <mxGeometry x="580" y="780" width="80" height="40" as="geometry"/>
                </mxCell>
                <mxCell id="32" value="" style="rounded=1;whiteSpace=wrap;html=1;labelBackgroundColor=#00FFFF;fontSize=25;fontColor=#051961;" vertex="1" parent="1">
                    <mxGeometry x="160" y="560" width="210" height="210" as="geometry"/>
                </mxCell>
                <mxCell id="33" value="" style="rounded=1;whiteSpace=wrap;html=1;labelBackgroundColor=#00FFFF;fontSize=25;fontColor=#051961;" vertex="1" parent="1">
                    <mxGeometry x="440" y="560" width="210" height="210" as="geometry"/>
                </mxCell>
                <mxCell id="34" value="CARD COUNT" style="rounded=1;whiteSpace=wrap;html=1;labelBackgroundColor=#00FFFF;fontSize=25;fontColor=#051961;" vertex="1" parent="1">
                    <mxGeometry x="205" y="570" width="105" height="70" as="geometry"/>
                </mxCell>
                <mxCell id="35" value="CARD COUNT" style="rounded=1;whiteSpace=wrap;html=1;labelBackgroundColor=#00FFFF;fontSize=25;fontColor=#051961;" vertex="1" parent="1">
                    <mxGeometry x="492.5" y="570" width="105" height="70" as="geometry"/>
                </mxCell>
                <mxCell id="36" value="HIT" style="rounded=1;whiteSpace=wrap;html=1;labelBackgroundColor=#00FFFF;fontSize=25;fontColor=#051961;" vertex="1" parent="1">
                    <mxGeometry x="170" y="690" width="80" height="30" as="geometry"/>
                </mxCell>
                <mxCell id="37" value="STAND" style="rounded=1;whiteSpace=wrap;html=1;labelBackgroundColor=#00FFFF;fontSize=25;fontColor=#051961;" vertex="1" parent="1">
                    <mxGeometry x="275" y="690" width="80" height="30" as="geometry"/>
                </mxCell>
                <mxCell id="38" value="HIT" style="rounded=1;whiteSpace=wrap;html=1;labelBackgroundColor=#00FFFF;fontSize=25;fontColor=#051961;" vertex="1" parent="1">
                    <mxGeometry x="450" y="690" width="80" height="30" as="geometry"/>
                </mxCell>
                <mxCell id="39" value="STAND" style="rounded=1;whiteSpace=wrap;html=1;labelBackgroundColor=#00FFFF;fontSize=25;fontColor=#051961;" vertex="1" parent="1">
                    <mxGeometry x="550" y="690" width="80" height="30" as="geometry"/>
                </mxCell>
                <mxCell id="40" value="Text" style="text;html=1;align=center;verticalAlign=middle;resizable=0;points=[];autosize=1;strokeColor=none;fillColor=none;fontSize=25;fontColor=#051961;" vertex="1" parent="1">
                    <mxGeometry x="255" width="70" height="40" as="geometry"/>
                </mxCell>
                <mxCell id="41" value="" style="rounded=1;whiteSpace=wrap;html=1;" vertex="1" parent="1">
                    <mxGeometry x="115" y="900" width="560" height="340" as="geometry"/>
                </mxCell>
                <mxCell id="42" value="CONGRATULATIONS" style="rounded=1;whiteSpace=wrap;html=1;labelBackgroundColor=#00FFFF;fontSize=25;fontColor=#051961;" vertex="1" parent="1">
                    <mxGeometry x="140" y="970" width="480" height="90" as="geometry"/>
                </mxCell>
                <mxCell id="43" value="WINNER" style="rounded=1;whiteSpace=wrap;html=1;labelBackgroundColor=#00FFFF;fontSize=25;fontColor=#051961;" vertex="1" parent="1">
                    <mxGeometry x="280" y="1070" width="200" height="90" as="geometry"/>
                </mxCell>
                <mxCell id="44" value="PLAY AGAIN" style="rounded=1;whiteSpace=wrap;html=1;labelBackgroundColor=#00FFFF;fontSize=25;fontColor=#051961;" vertex="1" parent="1">
                    <mxGeometry x="195" y="1180" width="155" height="40" as="geometry"/>
                </mxCell>
                <mxCell id="45" value="EXIT" style="rounded=1;whiteSpace=wrap;html=1;labelBackgroundColor=#00FFFF;fontSize=25;fontColor=#051961;" vertex="1" parent="1">
                    <mxGeometry x="435" y="1180" width="135" height="40" as="geometry"/>
                </mxCell>
            </root>
        </mxGraphModel>
    </diagram>
</mxfile>